<?xml version="1.0" encoding="UTF-8"?>
<svg id="Layer_2" data-name="Layer 2" xmlns="http://www.w3.org/2000/svg" viewBox="0 0 215.69 208.42" width = "30" height = "30">
    <path d="m0,94.02c.56-4.02,1.03-8.05,1.69-12.04,2.03-12.31,6.23-23.89,12.41-34.7,4.24-7.41,12.99-9.82,20.43-5.94,7.07,3.68,10.04,12.42,6.32,19.93-3.82,7.7-7.33,15.47-8.91,23.98-4.09,22.03.17,42.29,13.19,60.57,9.9,13.9,23.16,23.38,39.34,28.62,11.96,3.87,24.28,4.89,36.63,2.44,30.45-6.03,51.1-23.88,60.73-53.27,7.62-23.24,3.74-45.47-9.63-66.38-.42.84-.73,1.42-1,2.01-1.64,3.57-3.12,7.22-4.95,10.69-1.96,3.71-5.54,4.76-9.07,2.46-2.35-1.54-4.56-3.58-6.22-5.84-10.84-14.7-21.53-29.51-32.23-44.31-.94-1.3-1.8-2.71-2.36-4.2-2.18-5.73.36-10.62,6.4-11.68,5.73-1,11.55-1.51,17.34-2.13,12.85-1.39,25.7-2.77,38.56-4.01,2.83-.27,5.81-.35,8.57.21,4.95,1.01,7.21,5.16,5.47,9.93-1.65,4.54-3.68,8.95-5.71,13.34-.77,1.66-.76,2.71.58,4.18,13.75,15.02,23,32.5,26.29,52.58,7.24,44.13-7.2,80.06-42.57,107.33-13.93,10.74-29.98,17.16-47.4,19.5-34.11,4.59-64.21-4.57-89.54-27.96C14.58,161.06,3.57,138.17.52,111.45.35,110,.17,108.55,0,107.1c0-4.36,0-8.71,0-13.07Z"/>
</svg>